<?xml version="1.0" encoding="utf-8"?>
<!-- Generator: Adobe Illustrator 26.5.0, SVG Export Plug-In . SVG Version: 6.00 Build 0)  -->
<svg version="1.1" id="Calque_1" xmlns="http://www.w3.org/2000/svg" xmlns:xlink="http://www.w3.org/1999/xlink" x="0px" y="0px"
	 viewBox="0 0 925.8 371" style="enable-background:new 0 0 925.8 371;" xml:space="preserve">
<style type="text/css">
	.st0{fill:#FFFFFF;}
</style>
<g id="SVGRepo_bgCarrier">
</g>
<g id="SVGRepo_tracerCarrier">
</g>
<path class="st0" d="M253.9,78.6c0-13.6,10.5-24,24.1-23.9c13,0.1,24,11.2,23.8,24c-0.1,13.3-11,23.9-24.4,23.8
	C264.1,102.5,253.8,92,253.9,78.6z"/>
<g>
	<path class="st0" d="M915.7,179.9L806.9,11.3c-149.6,0-325.6,0-412.6,0c-93.1,0-262.1,0-382.4,0l108.7,168.5c1,3.2,1,6.5,0,9.7
		L12.2,357.5c222.6,0,577.8,0,795,0l108.5-168.3C916.6,186.2,916.6,183,915.7,179.9z M167.3,169.8c5.4,3.2,11.2,1.5,15.1-4.9
		c5.9-9.5,11.8-19,17.4-28.6c2.1-3.7,4.4-5.7,9-5.4c6.5,0.4,13,0.1,19.5,0.1c3.6,0,4,1.4,2.5,4.4c-4.7,9.2-9.1,18.5-14.1,27.6
		c-8,14.7-11.1,30.5-11.4,47.1c-0.2,9.3-1.2,18.6-1.9,27.9c-0.3,4.3-2.6,6.1-6.9,6c-14.7-0.1-29.4-0.6-44,0.1
		c-7.1,0.3-14.4,2.3-21.1,4.9c-6.8,2.6-11,8.4-13.5,15.3c-1.3,3.7-0.6,5.5,3.9,5.4c22-0.1,44,0,66,0c8.5,0,17,0,25.5,0
		c10.5-0.1,14.9-3.9,16-14.3c1.6-15.2,3-30.5,4.6-45.7c0.2-1.5,0.7-2.9,1-4.4c0.6,0,1.1,0,1.7-0.1c1.8,3.5,3.5,7.1,5.3,10.5
		c14.1,27.2,28.1,54.4,42.3,81.6c1.4,2.6,3,5.2,4.8,7.6c2.9,3.7,6.5,5.8,11.6,5.6c7-0.3,14-0.1,21.9-0.1c-2.4-5.1-4.4-9.6-6.5-13.9
		c-17.1-34.8-34.3-69.6-51.4-104.4c-0.7-1.4-1.3-3.4-0.8-4.6c5.8-12.7,11.8-25.3,17.8-38c0.3-0.5,0.8-1,1.6-1.9
		c1.7,1.9,3.2,3.6,4.6,5.3c4.8,6.1,9.6,12.4,14.4,18.5c3.2,4,7.3,6,12.6,5.9c10.7-0.2,21.3,0.1,32-0.2c4.8-0.1,6.8,1.1,6.7,6.4
		c-0.2,34.5-0.1,69-0.1,103.5c0,10,0.2,20-0.2,30c-0.1,2.7-1.5,5.8-3.3,7.8c-5.3,5.9-11.1,11.5-16.9,17c-1.3,1.3-3.3,2.7-5,2.7
		c-10.8,0.2-21.7,0.1-32.5,0.1c-0.6,0-1.2-0.5-2.9-1.2c8-8.1,15.6-15.7,24.2-24.4c-15.1,0.9-30.1-4.2-40.3,10.4
		c-0.3,0.4-0.8,0.6-1.1,1c-8.4,12.1-20,14.8-34.4,14.4c-37.6-1-75.3-0.4-113-0.4c-1.4,0-2.8-0.3-5.4-0.6c1.4-1.9,2.1-3.1,3.1-4.1
		c5.3-5.3,10.9-10.3,15.9-15.9c1.7-1.9,2.9-4.9,3-7.4c0.3-11,0-22,0.2-33c0.1-3.9-1-5.2-5.1-5.1c-10.3,0.3-20.7,0-31,0.2
		c-3.9,0.1-5.5-1.4-3.8-5.1c2.8-6.2,5.6-12.4,8.8-18.4c5.1-9.7,13.6-15,24.2-16.5c5.3-0.7,6.9-2.9,6.9-8.4
		c-0.2-66.3-0.1-132.6-0.1-199c0-6.7,0-6.7,6.5-6.7c65.2,0,130.3,0,195.5,0c6.5,0,6.7,0,6.7,6.7c0,39.7-0.1,79.3,0.1,119
		c0,4.4-1.2,6.3-5.9,6.2c-8.2-0.3-16.3,0.2-24.5-0.2c-2.1-0.1-4.8-1.5-6.2-3.2c-7.3-8.9-14.2-18-21.4-27.1
		c-7.7-9.7-16.7-15.9-30.1-15.2c-19,0.9-38,0.5-57,0.2c-12.2-0.2-21.5,3.6-27.4,15.2c-4.9,9.6-11.2,18.5-16.8,27.8
		C160.6,160,161.7,166.5,167.3,169.8z M749.9,89.6c13.5,0,24.6,10.8,24.6,24.3c0,13.5-10.9,24.5-24.4,24.5
		c-13.6,0-24.6-10.7-24.7-24.1C725.3,100.5,736.1,89.6,749.9,89.6z M595.3,173.8c10.7,0,21.3,0,32.3,0c0.2,0.9,0.3,1.7,0.5,2.4
		c0,0.1,0.1,0.2,0.2,0.3c10.3,0.3,17.6,6.5,18,15.6c0.5,10.2-5.6,16-18.3,17.6c-0.1,1.1-0.2,2.2-0.4,3.5c-10.7,0-21.4,0-32.3,0
		C595.3,200.2,595.3,187.1,595.3,173.8z M491.4,89.6c13.5-0.1,24.5,10.7,24.5,24.3c0.1,13.5-10.7,24.4-24.3,24.5
		c-13.6,0.2-24.7-10.8-24.8-24.5C466.8,100.6,477.8,89.7,491.4,89.6z M504.9,333.2c-3.2,0-6.4,0-9.9,0c0-17.5,0-34.8,0-52.4
		c-14.6,0-29,0-43.8,0c0,17.3,0,34.7,0,52.4c-3.6,0-6.8,0-10.3,0c0-37,0-73.8,0-110.9c-1.3-0.2-2.3-0.4-3.5-0.6
		c0-18.2,0-36.5,0-55.1c4.4,0,8.8,0,13.5,0c0,18.4,0,36.7,0,55.1c-1.1,0.2-2.1,0.4-3.4,0.6c0,17,0,34.1,0,51.5c19.1,0,38.1,0,57.4,0
		C504.9,293.8,504.9,313.4,504.9,333.2z M551.1,324.2c-0.1,7.6-6.5,13.3-14,13.2c-7.8-0.1-13.8-5.9-13.8-13.7
		c-0.1-17.4,0-34.7,0-52.1c0-1.3,0-2.5,0-4.7c-12.6,0.6-24.6,0.7-36.5,1.9c-17.4,1.9-33.2-12.2-32.1-29.6
		c1.3-20.6,2.7-41.2,4.3-61.7c1.3-17.4,17.3-29.7,34.3-25.6c10.5,2.5,20.6,6.6,30.7,10.4c18.5,6.9,37,14.2,55.5,21.3
		c8.8,3.4,12.9,12,9.7,20.3c-3.2,8.2-12.1,11.8-20.9,8.2c-16.3-6.6-32.6-13.3-48.9-20c-1.2-0.5-2.4-0.9-4.1-1.5
		c-1.2,16.4-2.3,32.5-3.4,49c1.7,0,3,0,4.2,0c6.9,0,13.8-0.1,20.6,0c8.2,0.1,14.3,5.6,14.4,13.6
		C551.3,276.8,551.3,300.5,551.1,324.2z M685.4,333.2c-3.6,0-6.8,0-10.4,0c0-30.3,0-60.5,0-90.8c-36.9,0-73.5,0-110.5,0
		c0,30.2,0,60.4,0,90.8c-3.6,0-6.7,0-10.2,0c0-30.2,0-60.4,0-90.9c-2.4-0.1-4.3-0.2-6.7-0.3c0-2.7,0-5.3,0-8.2c-2.6,0-4.8,0-7.2,0
		c0-2.9,0-5.5,0-8.3c53.6,0,107.1,0,160.7,0c0,2.7,0,5.2,0,8c-2.3,0.1-4.5,0.2-7.1,0.4c0,2.7,0,5.2,0,8.1c-3,0-5.6,0-8.6,0
		C685.4,272.7,685.4,302.9,685.4,333.2z M718.2,267.4c0,1.5,0,2.7,0,4c0,17,0,34,0,51.1c0,8.9-5.7,15-14,14.9
		c-8,0-13.9-6.2-13.9-14.8c0-22.7,0-45.5,0-68.2c0-8.9,5.7-14.7,14.6-14.8c8-0.1,16,0,24.7,0c-1.2-16.6-2.3-32.5-3.4-49
		c-1.6,0.6-2.8,0.9-3.9,1.4c-16.2,6.6-32.4,13.2-48.5,19.8c-9.1,3.7-17.9,0.5-21.3-7.9c-3.4-8.5,0.9-17.1,10.1-20.6
		c24-9.2,48-18.7,72.1-27.6c6.2-2.3,13-4.1,19.6-4.4c14.6-0.6,26.8,10.6,28.1,25.2c1.4,16,2.3,32.1,3.4,48.1c0.3,4.7,0.7,9.3,1,14
		c1.2,18.8-15.8,33.2-34.3,29.7c-6.2-1.2-12.7-0.7-19.1-0.9C728.4,267.3,723.6,267.4,718.2,267.4z M803.9,221.7
		c-0.9,0.2-1.9,0.3-3.2,0.6c0,36.9,0,73.8,0,111c-3.6,0-6.7,0-10.5,0c0-17.7,0-35,0-52.5c-14.6,0-28.9,0-43.6,0
		c0,17.5,0,34.9,0,52.5c-3.6,0-6.8,0-10.2,0c0-19.7,0-39.2,0-59.2c19,0,38.1,0,57.4,0c0-17.5,0-34.5,0-51.8
		c-1.1-0.2-2.1-0.4-3.4-0.6c0-18.4,0-36.7,0-55.2c4.5,0,8.8,0,13.4,0C803.9,184.8,803.9,203.1,803.9,221.7z"/>
</g>
<path class="st0" d="M628,184.4v19.4c0,0,11.6-1.2,11.6-9.7C639.6,185.6,628,184.4,628,184.4z"/>
</svg>
