<?xml version="1.0" encoding="utf-8"?>
<!-- Generator: Adobe Illustrator 26.5.0, SVG Export Plug-In . SVG Version: 6.00 Build 0)  -->
<svg version="1.1" id="Calque_1" xmlns="http://www.w3.org/2000/svg" xmlns:xlink="http://www.w3.org/1999/xlink" x="0px" y="0px"
	 viewBox="0 0 1811.4 371" style="enable-background:new 0 0 1811.4 371;" xml:space="preserve">
<style type="text/css">
	.st0{fill:#FFFFFF;}
</style>
<g id="SVGRepo_bgCarrier">
</g>
<g id="SVGRepo_tracerCarrier">
</g>
<path class="st0" d="M253.9,79.3c0-13.6,10.5-24,24.1-23.9c13,0.1,24,11.2,23.8,24c-0.1,13.3-11,23.9-24.4,23.8
	C264.1,103.2,253.8,92.7,253.9,79.3z"/>
<g>
	<path class="st0" d="M915.7,180.6L806.9,12c-149.6,0-325.6,0-412.6,0c-93.1,0-262.1,0-382.4,0l108.7,168.5c1,3.2,1,6.5,0,9.7
		l-108.4,168c222.6,0,577.8,0,795,0l108.5-168.3C916.6,186.9,916.6,183.7,915.7,180.6z M167.3,170.5c5.4,3.2,11.2,1.5,15.1-4.9
		c5.9-9.5,11.8-19,17.4-28.6c2.1-3.7,4.4-5.7,9-5.4c6.5,0.4,13,0.1,19.5,0.1c3.6,0,4,1.4,2.5,4.4c-4.7,9.2-9.1,18.5-14.1,27.6
		c-8,14.7-11.1,30.5-11.4,47.1c-0.2,9.3-1.2,18.6-1.9,27.9c-0.3,4.3-2.6,6.1-6.9,6c-14.7-0.1-29.4-0.6-44,0.1
		c-7.1,0.3-14.4,2.3-21.1,4.9c-6.8,2.6-11,8.4-13.5,15.3c-1.3,3.7-0.6,5.5,3.9,5.4c22-0.1,44,0,66,0c8.5,0,17,0,25.5,0
		c10.5-0.1,14.9-3.9,16-14.3c1.6-15.2,3-30.5,4.6-45.7c0.2-1.5,0.7-2.9,1-4.4c0.6,0,1.1,0,1.7-0.1c1.8,3.5,3.5,7.1,5.3,10.5
		c14.1,27.2,28.1,54.4,42.3,81.6c1.4,2.6,3,5.2,4.8,7.6c2.9,3.7,6.5,5.8,11.6,5.6c7-0.3,14-0.1,21.9-0.1c-2.4-5.1-4.4-9.6-6.5-13.9
		c-17.1-34.8-34.3-69.6-51.4-104.4c-0.7-1.4-1.3-3.4-0.8-4.6c5.8-12.7,11.8-25.3,17.8-38c0.3-0.5,0.8-1,1.6-1.9
		c1.7,1.9,3.2,3.6,4.6,5.3c4.8,6.1,9.6,12.4,14.4,18.5c3.2,4,7.3,6,12.6,5.9c10.7-0.2,21.3,0.1,32-0.2c4.8-0.1,6.8,1.1,6.7,6.4
		c-0.2,34.5-0.1,69-0.1,103.5c0,10,0.2,20-0.2,30c-0.1,2.7-1.5,5.8-3.3,7.8c-5.3,5.9-11.1,11.5-16.9,17c-1.3,1.3-3.3,2.7-5,2.7
		c-10.8,0.2-21.7,0.1-32.5,0.1c-0.6,0-1.2-0.5-2.9-1.2c8-8.1,15.6-15.7,24.2-24.4c-15.1,0.9-30.1-4.2-40.3,10.4
		c-0.3,0.4-0.8,0.6-1.1,1c-8.4,12.1-20,14.8-34.4,14.4c-37.6-1-75.3-0.4-113-0.4c-1.4,0-2.8-0.3-5.4-0.6c1.4-1.9,2.1-3.1,3.1-4.1
		c5.3-5.3,10.9-10.3,15.9-15.9c1.7-1.9,2.9-4.9,3-7.4c0.3-11,0-22,0.2-33c0.1-3.9-1-5.2-5.1-5.1c-10.3,0.3-20.7,0-31,0.2
		c-3.9,0.1-5.5-1.4-3.8-5.1c2.8-6.2,5.6-12.4,8.8-18.4c5.1-9.7,13.6-15,24.2-16.5c5.3-0.7,6.9-2.9,6.9-8.4
		c-0.2-66.3-0.1-132.6-0.1-199c0-6.7,0-6.7,6.5-6.7c65.2,0,130.3,0,195.5,0c6.5,0,6.7,0,6.7,6.7c0,39.7-0.1,79.3,0.1,119
		c0,4.4-1.2,6.3-5.9,6.2c-8.2-0.3-16.3,0.2-24.5-0.2c-2.1-0.1-4.8-1.5-6.2-3.2c-7.3-8.9-14.2-18-21.4-27.1
		c-7.7-9.7-16.7-15.9-30.1-15.2c-19,0.9-38,0.5-57,0.2c-12.2-0.2-21.5,3.6-27.4,15.2c-4.9,9.6-11.2,18.5-16.8,27.8
		C160.6,160.7,161.7,167.2,167.3,170.5z M749.9,90.3c13.5,0,24.6,10.8,24.6,24.3c0,13.5-10.9,24.5-24.4,24.5
		c-13.6,0-24.6-10.7-24.7-24.1C725.3,101.2,736.1,90.3,749.9,90.3z M595.3,174.5c10.7,0,21.3,0,32.3,0c0.2,0.9,0.3,1.7,0.5,2.4
		c0,0.1,0.1,0.2,0.2,0.3c10.3,0.3,17.6,6.5,18,15.6c0.5,10.2-5.6,16-18.3,17.6c-0.1,1.1-0.2,2.2-0.4,3.5c-10.7,0-21.4,0-32.3,0
		C595.3,200.9,595.3,187.8,595.3,174.5z M491.4,90.3c13.5-0.1,24.5,10.7,24.5,24.3c0.1,13.5-10.7,24.4-24.3,24.5
		c-13.6,0.2-24.7-10.8-24.8-24.5C466.8,101.3,477.8,90.4,491.4,90.3z M504.9,333.9c-3.2,0-6.4,0-9.9,0c0-17.5,0-34.8,0-52.4
		c-14.6,0-29,0-43.8,0c0,17.3,0,34.7,0,52.4c-3.6,0-6.8,0-10.3,0c0-37,0-73.8,0-110.9c-1.3-0.2-2.3-0.4-3.5-0.6
		c0-18.2,0-36.5,0-55.1c4.4,0,8.8,0,13.5,0c0,18.4,0,36.7,0,55.1c-1.1,0.2-2.1,0.4-3.4,0.6c0,17,0,34.1,0,51.5c19.1,0,38.1,0,57.4,0
		C504.9,294.5,504.9,314.1,504.9,333.9z M551.1,324.9c-0.1,7.6-6.5,13.3-14,13.2c-7.8-0.1-13.8-5.9-13.8-13.7
		c-0.1-17.4,0-34.7,0-52.1c0-1.3,0-2.5,0-4.7c-12.6,0.6-24.6,0.7-36.5,1.9c-17.4,1.9-33.2-12.2-32.1-29.6
		c1.3-20.6,2.7-41.2,4.3-61.7c1.3-17.4,17.3-29.7,34.3-25.6c10.5,2.5,20.6,6.6,30.7,10.4c18.5,6.9,37,14.2,55.5,21.3
		c8.8,3.4,12.9,12,9.7,20.3c-3.2,8.2-12.1,11.8-20.9,8.2c-16.3-6.6-32.6-13.3-48.9-20c-1.2-0.5-2.4-0.9-4.1-1.5
		c-1.2,16.4-2.3,32.5-3.4,49c1.7,0,3,0,4.2,0c6.9,0,13.8-0.1,20.6,0c8.2,0.1,14.3,5.6,14.4,13.6
		C551.3,277.5,551.3,301.2,551.1,324.9z M685.4,333.9c-3.6,0-6.8,0-10.4,0c0-30.3,0-60.5,0-90.8c-36.9,0-73.5,0-110.5,0
		c0,30.2,0,60.4,0,90.8c-3.6,0-6.7,0-10.2,0c0-30.2,0-60.4,0-90.9c-2.4-0.1-4.3-0.2-6.7-0.3c0-2.7,0-5.3,0-8.2c-2.6,0-4.8,0-7.2,0
		c0-2.9,0-5.5,0-8.3c53.6,0,107.1,0,160.7,0c0,2.7,0,5.2,0,8c-2.3,0.1-4.5,0.2-7.1,0.4c0,2.7,0,5.2,0,8.1c-3,0-5.6,0-8.6,0
		C685.4,273.4,685.4,303.6,685.4,333.9z M718.2,268.1c0,1.5,0,2.7,0,4c0,17,0,34,0,51.1c0,8.9-5.7,15-14,14.9
		c-8,0-13.9-6.2-13.9-14.8c0-22.7,0-45.5,0-68.2c0-8.9,5.7-14.7,14.6-14.8c8-0.1,16,0,24.7,0c-1.2-16.6-2.3-32.5-3.4-49
		c-1.6,0.6-2.8,0.9-3.9,1.4c-16.2,6.6-32.4,13.2-48.5,19.8c-9.1,3.7-17.9,0.5-21.3-7.9c-3.4-8.5,0.9-17.1,10.1-20.6
		c24-9.2,48-18.7,72.1-27.6c6.2-2.3,13-4.1,19.6-4.4c14.6-0.6,26.8,10.6,28.1,25.2c1.4,16,2.3,32.1,3.4,48.1c0.3,4.7,0.7,9.3,1,14
		c1.2,18.8-15.8,33.2-34.3,29.7c-6.2-1.2-12.7-0.7-19.1-0.9C728.4,268,723.6,268.1,718.2,268.1z M803.9,222.4
		c-0.9,0.2-1.9,0.3-3.2,0.6c0,36.9,0,73.8,0,111c-3.6,0-6.7,0-10.5,0c0-17.7,0-35,0-52.5c-14.6,0-28.9,0-43.6,0
		c0,17.5,0,34.9,0,52.5c-3.6,0-6.8,0-10.2,0c0-19.7,0-39.2,0-59.2c19,0,38.1,0,57.4,0c0-17.5,0-34.5,0-51.8
		c-1.1-0.2-2.1-0.4-3.4-0.6c0-18.4,0-36.7,0-55.2c4.5,0,8.8,0,13.4,0C803.9,185.5,803.9,203.8,803.9,222.4z"/>
</g>
<path class="st0" d="M628,185.1v19.4c0,0,11.6-1.2,11.6-9.7C639.6,186.3,628,185.1,628,185.1z"/>
<g>
	<path class="st0" d="M1076.7,19.4l-18,35.6l-2.6-1c-0.5-5.5,0.3-5.9-5.5-8.3c-1.4-0.5-4-1.6-9.7-3.1c-7.3-2.1-12.8-3.1-19.9-4.1
		c-9-1.2-39.6-4.5-47.7,6.2c-2.1,2.9-2.9,5.4-1.6,7.9c3.1,6,22.1,7.9,25.6,8.1l28.7,3.5c16.6,2.1,43.9,4.3,51.7,27.6
		c4.3,11.9,2.8,28.9-10,41.8c-30.2,30.6-94.9,18.7-125.8,8.6l-6.4-1.6l-3.8,4l-2.8-1l18.8-46.8l2.2,1.2c-0.5,5.7-1.7,7.1,4.8,12.1
		c14.5,10.7,53,15,73.1,9.5c6.6-1.9,12.4-4.5,14.7-10c1-2.9,1-5.5-0.7-7.9c-3.8-5.4-24-6.6-25.6-6.9l-23.8-2.4
		c-10.7-1-46.3-3.6-55.1-26.6c-4.1-10.5-2.4-25.1,6.9-35.8c25.7-29,79.8-19,106.1-13l11.2,3.1c1,0.3,4.8,1,6,1h1.4l1.6-0.7
		c1.9-1.6,1.9-1.9,3.5-2.9L1076.7,19.4z"/>
	<path class="st0" d="M1227.4,58.1c13.5,15,15.9,36.1,11.6,51c-6,21.6-19.7,33.5-42,40.6c-19.2,6-56.2,6-75.8-10
		c-17.1-14-21.1-35.9-19.5-51c1.7-18.5,10-34.2,31.3-45.3c8.3-4.3,16.4-6.4,23.5-7.4C1174.7,33.6,1208.2,36,1227.4,58.1z
		 M1142.2,113.2c9.7,11.9,25.9,12.6,35.9,11.1c12.8-2.1,21.8-7.6,26.6-20.2c3.5-8.8,2.6-20.4-4-28.5c-9.8-11.9-28-13.8-37-12.4
		c-12.1,1.9-21.6,8.1-26.4,20.9C1133.7,93.7,1135.1,104.6,1142.2,113.2z"/>
	<path class="st0" d="M1333.3,36.7c12.4,0,37.3-1.2,49.8,16.8c6,8.6,7.1,21.6,3.6,31.1c-5,13.1-13.5,17.6-27,24l10.5,16.1
		c1,1.2,2.1,3.5,3.5,5.2l3.5,5.4l2.9,4.5c0.7,0.7,3.5,5,4.7,6.2c2.4,2.4,5,2.8,6.9,2.8v3.1h-52.5v-3.1l6-3.8c0-1.7-0.2-1.6-1-3.6
		l-18.7-32.5h-24.9v14.3c0,1.7,0,4.7,0,7.1v7.4v7.3c1.6,3.8,2.6,3.8,6.4,3.8v3.1h-44.4v-3.1c2.8,0,4.3,0,5.5-3.3c0,0,0-6,0-6.6V50.2
		c0-1,0-5.7-0.5-6.7c-0.7-3.3-2.2-3.8-5.5-3.8v-2.9H1333.3z M1321.2,87.3c3.3,0,26.6,2.2,33.3-8.1c2.6-4,2.1-8.5,0.2-12.1
		c-6-11.4-27.5-8.5-34.6-8.5H1301v28.7H1321.2z"/>
	<path class="st0" d="M1415.9,30.1c0.9,1.9,0,4.5,3.1,6h6.7h98.7c1.2,0,6.6,0.9,7.8-0.2c1-0.9,2.2-1.4,2.9-3.8l0.3-1l0.2-1h1l1,0.5
		v38.9l-3.1-0.3c0-1.9,0.9-4.5-3.6-5.7c0,0-6.6,0-7.1,0h-14.3h-15.9v82.8l1.9,2.1h4v3.5h-47l0.5-3.1c2.2,0,4,0.2,5-3.3
		c0.5-1,0.5-5,0.5-6.6V63.5h-40.1l-2.8,6l-2.4-0.3v-39H1415.9z"/>
	<path class="st0" d="M1612,36.2v3.3c-2.8,0.5-5.4-0.9-7.8,3.1c-1,1.4-0.7,6.4-0.7,8.5v86.7c0,9-1.9,9.3,8.5,11.4l-0.3,2.6H1560
		v-3.1c2.6-0.5,5.2,0.7,7.6-2.8c1-1.2,0.9-6.7,0.9-8.1V50.5c0-8.8,2.1-9-8.8-11.1v-3.3H1612z"/>
	<path class="st0" d="M1704.6,36.7c12.4,0,37.3-1.2,49.8,16.8c6,8.6,7.1,21.6,3.6,31.1c-5,13.1-13.5,17.6-27,24l10.5,16.1
		c1,1.2,2.1,3.5,3.5,5.2l3.5,5.4l2.9,4.5c0.7,0.7,3.5,5,4.7,6.2c2.4,2.4,5,2.8,6.9,2.8v3.1h-52.5v-3.1l6-3.8c0-1.7-0.2-1.6-1-3.6
		l-18.7-32.5h-24.9v14.3c0,1.7,0,4.7,0,7.1v7.4v7.3c1.6,3.8,2.6,3.8,6.4,3.8v3.1h-44.4v-3.1c2.8,0,4.3,0,5.5-3.3c0,0,0-6,0-6.6V50.2
		c0-1,0-5.7-0.5-6.7c-0.7-3.3-2.2-3.8-5.5-3.8v-2.9H1704.6z M1692.5,87.3c3.3,0,26.6,2.2,33.3-8.1c2.6-4,2.1-8.5,0.2-12.1
		c-6-11.4-27.5-8.5-34.6-8.5h-19.2v28.7H1692.5z"/>
	<path class="st0" d="M961.8,323c5.7,4.5,8.6,10.7,8.1,18c-0.5,6.2-3.5,12.6-10.5,16.8c-5,2.9-13,3.5-18.8,0.5
		c-6.6-3.1-10.5-8.8-11.2-16.1c-1.4-9,3.1-19.2,14.2-22.6C948,318,955.6,318.2,961.8,323z"/>
	<path class="st0" d="M1110.7,318l2.8-2.6l19.7,29l-2.4,2.1c-5.2-2.4-6.2-1.4-10.7,0c-2.4,0.7-13.3,5.7-21.4,8.1
		c-10.2,3.1-18.1,4-24,4.1c-19.2,0.9-41.6-0.7-53.6-6.7c-18.5-9.8-27.1-27-29-44.1c-1.6-15.5,2.2-36.1,20.6-51.5
		c25.1-20.6,75.5-13.5,100-7.9c4.8,2.2,4.8,2.2,9.5-1.2l2.6,1l-13.1,33.7l-3.1-1.2l0.5-2.8c-15.4-11.2-48-14.7-63.6-7.9
		c-10.5,4.5-18,13.3-19.5,24.4c-1.4,9.2,0,23,12.4,33.2c13.3,11.4,42.7,7.4,60.3,2.8c0,0.2,8.5-3.3,13.1-10L1110.7,318z"/>
	<path class="st0" d="M1279.4,265.5c13.5,15,15.9,36.1,11.6,51c-6,21.6-19.7,33.5-42,40.6c-19.2,6-56.2,6-75.8-10
		c-17.1-14-21.1-35.9-19.5-51c1.7-18.5,10-34.2,31.3-45.3c8.3-4.3,16.4-6.4,23.5-7.4C1226.7,240.9,1260.2,243.3,1279.4,265.5z
		 M1194.2,320.6c9.7,11.9,25.9,12.6,35.9,11.1c12.8-2.1,21.8-7.6,26.6-20.2c3.5-8.8,2.6-20.4-4-28.5c-9.8-11.9-28-13.8-37-12.4
		c-12.1,1.9-21.6,8.1-26.4,20.9C1185.7,301,1187.1,311.9,1194.2,320.6z"/>
	<path class="st0" d="M1371,244l-0.3,2.9h-3.1l-1.6,2.1l21.6,45.4l22.6-45.1l-6.4-2.6V244h58.6v2.8l-5.2,1.6v97.3v6.6
		c1.2,4.3,4,2.9,6.2,3.8v3.1h-44.6V356c3.5-1.4,3.8,0.7,6.7-3.8c0.2-0.7,0.2-6.6,0.2-7.3v-4.8c0-2.6,0-5.2,0-8.1v-54.1l-39.2,74.1
		l-38.4-73.4v56.3c0,1,0,3.1,0,5v5.2c0,7.9-1.6,8.5,7.1,11.4v2.6h-40.8l0.2-3.1l5.5-2.9v-95.5c0-1,0-5.7-0.5-6.7
		c0-3.8-3.5-2.9-5.5-3.8V244H1371z"/>
</g>
</svg>
